# xmcd CD database file
#
# Track frame offsets:
#	150
#	16500
#	27336
#	41561
#	56514
#	66215
#	77025
#	93825
#	119540
#	140691
#	160633
#	175471
#	197965
#	223252
#
# Disc length: 3192 seconds
#
# Revision: 2
# Processed by: cddbd v1.5PL3 Copyright (c) Steve Scherf et al.
# Submitted via: CDex 1.51
#
DISCID=c10c760e
DTITLE=Various Artist - Roma Alta Moda (Party)
DYEAR=2003
DGENRE=New Age
TTITLE0=Paris Combo - Senor
TTITLE1=Astrud Gilberto - Take Me To Aruanda
TTITLE2=Henri Salvador - Jazz Méditerranée
TTITLE3=Ursula 1000 - Beat The Box Cha Cha
TTITLE4=Jacqueline Taieb - 7h Du Matin
TTITLE5=The Frank Popp Ensemble - You Have Been Gone Too Long
TTITLE6=Doing Time - I Was A Ye-Ye Girl
TTITLE7=Henri Dikongué - Ndol'Asu
TTITLE8=Bent - Magic Love
TTITLE9=Zumo Royal - Libertango
TTITLE10=Gloster - Kiss
TTITLE11=Bobby d'Ambrosio - So Thankful (Sunday Morning Reprise)
TTITLE12=Blaze - Breath (Hardsoul Reconstruction)
TTITLE13=Espirito - Canto De Orfeo
EXTD=YEAR: 2003
EXTT0=
EXTT1=
EXTT2=
EXTT3=
EXTT4=
EXTT5=
EXTT6=
EXTT7=
EXTT8=
EXTT9=
EXTT10=
EXTT11=
EXTT12=
EXTT13=
PLAYORDER=
